<?xml version="1.0" encoding="utf-8"?>
<!-- Generator: Adobe Illustrator 17.1.0, SVG Export Plug-In . SVG Version: 6.00 Build 0)  -->
<!DOCTYPE svg PUBLIC "-//W3C//DTD SVG 1.1//EN" "http://www.w3.org/Graphics/SVG/1.1/DTD/svg11.dtd">
<svg version="1.1" id="Layer_1" xmlns="http://www.w3.org/2000/svg" xmlns:xlink="http://www.w3.org/1999/xlink" x="0px" y="0px"
	 viewBox="0 0 450 200" enable-background="new 0 0 450 200" xml:space="preserve">
<g>
	<g>
		<path fill="#106696" d="M82.4,73.2C81.8,69.3,81,65,80,61.1c1.9,0.2,3.9,0.3,5.8,0.3c2.1,0,4.1-0.1,6-0.3
			C92.5,71.5,94,82.3,95.5,91c3.9-5.4,7.3-11.1,10.7-16.8c3.1-5.2,5.3-9.8,6.8-13.1c1.4,0.3,2.4,0.3,3.8,0.3c1.4,0,2.4-0.1,3.6-0.3
			c-4,5.6-5.4,8-19.1,29.8c-4.3,6.9-6,10.3-7.5,13.3c-1.3-0.3-2.2-0.3-3.5-0.3c-1.7,0-2.6,0.1-3.4,0.3C86,93.7,84.3,83.5,82.4,73.2z
			"/>
	</g>
	<g>
		<path fill="#106696" d="M178.8,66.1c-3-0.1-5.5-0.1-7.3-0.1c-6.3,0-9.1,0.3-12.5,1.1c0.6-1.5,1.3-3.1,1.2-6
			c6,0.3,12.1,0.3,18.3,0.3c7.4,0,11.8-0.1,16.6-0.3c-0.3,0.8-0.4,1.4-0.4,2.2c-6,6.9-7.2,8.4-17.9,21.9c-7.8,9.8-8.6,11-10.8,14.1
			c1.2,0.1,2.7,0.1,6,0.1c6.2,0,10.8-0.1,16.5-0.9c-0.9,2.6-1.1,4.3-1.2,5.9c-5.2-0.3-11.3-0.3-18.4-0.3c-8.1,0-13,0.1-18,0.3
			c0.2-0.8,0.2-1.4,0.2-2.4C154.9,97.3,173.7,73.5,178.8,66.1z"/>
	</g>
	<g>
		<polygon fill="#106696" points="434.1,87.4 432.8,92.3 371.8,92.3 370.5,87.4 		"/>
	</g>
	<g>
		<path fill="#106696" d="M34.8,109.4c0.6,0,1.2,0,1.6-0.1c-1.2,4.1-2.5,10.6-2.7,12.3c2.3,0,3.4,0,4.7-0.1
			c-0.3,0.6-0.3,0.9-0.3,1.5c-1.4-0.1-2.7-0.1-4.1-0.1c-1.5,0-2.8,0.1-3.8,0.1c0.6-2.2,1.2-4.9,1.7-7.3c0.5-2.1,0.8-4.2,1.1-6.3
			C33.6,109.4,34.2,109.4,34.8,109.4z"/>
		<path fill="#106696" d="M48.1,122.6c-0.4,0.3-0.8,0.5-1.6,0.5c-1.5,0-1.7-1-1.8-1.5c-0.6,1.1-1.4,1.6-2.7,1.6
			c-1.6,0-2.6-1.1-2.6-2.6c0-1.3,0.8-2.5,2.1-2.9c0.6-0.2,1.6-0.3,2.4-0.4c1.2-0.1,1.5-0.2,1.5-1.3c0-1.2-0.9-1.5-1.7-1.5
			c-0.8,0-1.5,0.3-2.1,0.8h-0.1c0.1-0.5,0.1-0.7,0.1-1.1c1.1-0.6,2.3-0.9,3.5-0.9c1.5,0,3.1,0.6,3.1,2.4c0,0.6-0.2,1.4-0.3,1.8
			l-0.5,2.5c-0.2,0.9-0.2,1.3-0.2,1.5c0,0.3,0.1,0.8,0.5,0.8c0.1,0,0.2-0.1,0.3-0.1L48.1,122.6z M43.1,121.9c1.2,0,1.5-1.4,1.7-2.4
			l0.3-1.5c-1.2,0.2-1.7,0.3-2.2,0.6c-0.6,0.4-0.9,1.3-0.9,2C42.1,121.2,42.3,121.9,43.1,121.9z"/>
		<path fill="#106696" d="M58.8,118.6c-0.5,2-0.6,2.8-0.9,4.4c-0.4,0-0.9-0.1-1.5-0.1c-0.6,0-1.1,0.1-1.5,0.1c0.3-1,1.9-6.1,1.9-7.2
			c0-0.7-0.4-1.1-1.2-1.1c-1,0-2,0.8-2.5,2.5c-0.4,1.3-1,3.8-1.3,5.7c-0.5,0-0.9-0.1-1.4-0.1c-0.5,0-1,0-1.4,0.1
			c0.7-2.6,1.3-5.3,2.1-9.6c0.4,0.1,1,0.1,1.4,0.1c0.4,0,0.9,0,1.3-0.1c-0.2,0.7-0.3,0.9-0.4,1.7c1-1.2,2-1.9,3.6-1.9
			c1.6,0,2.4,0.9,2.4,2.1C59.4,116,59.3,116.5,58.8,118.6z"/>
		<path fill="#106696" d="M63,119.1c-1.1-0.5-1.8-1.3-1.8-2.5c0-1.7,1.4-3.4,4.4-3.4c0.6,0,1.1,0.1,1.5,0.2c0.6,0.1,0.8,0.2,1.2,0.2
			c0.4,0,1.9-0.1,2.3-0.1c-0.1,0.3-0.2,0.6-0.2,1c-0.6,0-1.1,0-1.7,0c0.5,0.5,0.7,1.1,0.7,1.8c0,0.7-0.3,1.9-1.4,2.6
			c-1.2,0.7-2.5,0.8-3.2,0.8c-0.2,0-0.9,0-1,0c-0.6,0-0.9,0.5-0.9,0.9c0,0.7,0.7,0.8,1.9,0.8c0.7,0,1.9,0,2.6,0.4
			c0.8,0.4,1.3,1.3,1.3,2.2c0,1.9-1.7,4.3-5.2,4.3c-1.7,0-4.3-0.5-4.3-2.7c0-1.5,1.3-2.3,2.6-2.6l0-0.1c-0.6-0.3-1-0.7-1-1.4
			c0-1.1,1-1.8,2-2L63,119.1z M63.7,127.3c2,0,2.9-1.1,2.9-2.4c0-1.2-0.8-1.7-3.5-1.7c-0.3,0-0.7,0-1.1,0.2c-0.6,0.3-0.9,1-0.9,1.7
			C61.2,126.7,62.3,127.3,63.7,127.3z M65,118.8c1.5,0,2-2.3,2-3.4c0-0.6-0.2-1.5-1.2-1.5c-1.5,0-1.9,2.5-1.9,3.4
			C63.8,118.2,64.1,118.8,65,118.8z"/>
		<path fill="#106696" d="M71.4,119c0.8-3.6,1-4.5,1.1-5.6c0.4,0.1,0.9,0.1,1.5,0.1c0.7,0,1.1-0.1,1.5-0.1c-0.7,2.4-0.9,3.2-1.4,5.1
			c-0.3,1.4-0.4,1.9-0.4,2.3c0,0.6,0.4,1,1.2,1c0.7,0,1.8-0.5,2.4-2.2c0.6-1.6,1.1-4.4,1.4-6.1c0.4,0.1,0.7,0.1,1.3,0.1
			c0.7,0,1.1-0.1,1.5-0.1c-1,3.8-1.5,6.5-2,9.6c-0.4-0.1-0.7-0.1-1.3-0.1c-0.6,0-1.1,0-1.4,0.1c0.2-0.6,0.3-0.9,0.5-1.6
			c-0.5,0.6-1.5,1.9-3.6,1.9c-1.6,0-2.5-0.9-2.5-2.1C71,120.4,71.2,119.7,71.4,119z"/>
		<path fill="#106696" d="M90.5,122.6c-0.4,0.3-0.8,0.5-1.6,0.5c-1.5,0-1.7-1-1.9-1.5c-0.6,1.1-1.4,1.6-2.7,1.6
			c-1.6,0-2.6-1.1-2.6-2.6c0-1.3,0.8-2.5,2.1-2.9c0.6-0.2,1.6-0.3,2.4-0.4c1.2-0.1,1.5-0.2,1.5-1.3c0-1.2-0.9-1.5-1.7-1.5
			c-0.8,0-1.5,0.3-2.1,0.8h-0.1c0.1-0.5,0.1-0.7,0.1-1.1c1.1-0.6,2.3-0.9,3.5-0.9c1.5,0,3.1,0.6,3.1,2.4c0,0.6-0.2,1.4-0.3,1.8
			l-0.5,2.5c-0.2,0.9-0.2,1.3-0.2,1.5c0,0.3,0.1,0.8,0.5,0.8c0.1,0,0.2-0.1,0.3-0.1L90.5,122.6z M85.6,121.9c1.2,0,1.5-1.4,1.7-2.4
			l0.3-1.5c-1.2,0.2-1.8,0.3-2.2,0.6c-0.6,0.4-0.9,1.3-0.9,2C84.5,121.2,84.8,121.9,85.6,121.9z"/>
		<path fill="#106696" d="M94.3,119.1c-1.1-0.5-1.8-1.3-1.8-2.5c0-1.7,1.4-3.4,4.4-3.4c0.6,0,1.1,0.1,1.5,0.2
			c0.6,0.1,0.8,0.2,1.2,0.2c0.4,0,1.9-0.1,2.3-0.1c-0.1,0.3-0.2,0.6-0.2,1c-0.6,0-1.1,0-1.7,0c0.5,0.5,0.7,1.1,0.7,1.8
			c0,0.7-0.3,1.9-1.4,2.6c-1.2,0.7-2.5,0.8-3.2,0.8c-0.2,0-0.9,0-1,0c-0.6,0-0.9,0.5-0.9,0.9c0,0.7,0.7,0.8,1.9,0.8
			c0.7,0,1.9,0,2.6,0.4c0.8,0.4,1.3,1.3,1.3,2.2c0,1.9-1.7,4.3-5.2,4.3c-1.7,0-4.3-0.5-4.3-2.7c0-1.5,1.3-2.3,2.6-2.6l0-0.1
			c-0.6-0.3-1-0.7-1-1.4c0-1.1,1-1.8,2-2L94.3,119.1z M95.1,127.3c2,0,2.9-1.1,2.9-2.4c0-1.2-0.8-1.7-3.5-1.7c-0.3,0-0.7,0-1.1,0.2
			c-0.6,0.3-0.9,1-0.9,1.7C92.5,126.7,93.7,127.3,95.1,127.3z M96.4,118.8c1.5,0,2-2.3,2-3.4c0-0.6-0.2-1.5-1.2-1.5
			c-1.5,0-1.9,2.5-1.9,3.4C95.2,118.2,95.5,118.8,96.4,118.8z"/>
		<path fill="#106696" d="M110.3,121c-0.1,0.3-0.3,0.6-0.5,1.4c-0.9,0.6-1.9,0.8-3,0.8c-3.1,0-4.5-2.2-4.5-4.5
			c0-2.6,1.8-5.5,5.2-5.5c2.5,0,3.7,1.4,3.7,3.6c0,0.5-0.1,1-0.2,1.5c-1.7,0-2.7-0.1-3.6-0.1c-0.5,0-1.1,0-2.3,0
			c0,0.3-0.1,0.7-0.1,1.1c0,1.6,0.7,2.6,2.4,2.6c0.7,0,1.7-0.3,2.5-1.1L110.3,121z M107.6,114.1c-1.4,0-1.9,1.6-2.3,3.2
			c0.5,0,0.9,0,1.4,0c0.5,0,1.1,0,1.9,0c0.1-0.3,0.2-1,0.2-1.7C108.9,114.8,108.6,114.1,107.6,114.1z"/>
		<path fill="#106696" d="M126.2,112.5c-0.1-1.3-0.9-2.2-2.4-2.2c-1.3,0-2,0.9-2,1.8c0,1.1,0.8,1.7,2.3,3c1.2,1,2.3,2,2.3,3.8
			c0,2.8-2.2,4.3-4.8,4.3c-1.6,0-2.8-0.4-4.2-1.2c0.4-0.8,0.7-1.7,0.9-2.4h0.4c0.1,1.5,1.2,2.5,2.7,2.5c1.2,0,2.3-0.7,2.3-2
			c0-1.1-1-1.9-2.1-2.8c-1.4-1.1-2.5-2.1-2.5-4c0-2.7,2-4.2,4.6-4.2c1.4,0,2.6,0.3,3.8,1.1c-0.5,1-0.7,1.7-0.9,2.4H126.2z"/>
		<path fill="#106696" d="M136.1,121c-0.1,0.3-0.3,0.6-0.5,1.4c-0.9,0.6-1.9,0.8-3,0.8c-3.1,0-4.5-2.2-4.5-4.5
			c0-2.6,1.8-5.5,5.2-5.5c2.5,0,3.7,1.4,3.7,3.6c0,0.5-0.1,1-0.2,1.5c-1.7,0-2.7-0.1-3.6-0.1c-0.5,0-1.1,0-2.3,0
			c0,0.3-0.1,0.7-0.1,1.1c0,1.6,0.7,2.6,2.4,2.6c0.7,0,1.7-0.3,2.5-1.1L136.1,121z M133.4,114.1c-1.4,0-1.9,1.6-2.3,3.2
			c0.5,0,0.9,0,1.4,0c0.5,0,1.1,0,1.9,0c0.1-0.3,0.2-1,0.2-1.7C134.7,114.8,134.4,114.1,133.4,114.1z"/>
		<path fill="#106696" d="M144.9,116c-0.2-0.1-0.5-0.3-1-0.3c-1.7,0-2.1,1.4-2.3,2.2c-0.2,0.9-0.5,2.3-1,5.1c-0.4,0-0.9-0.1-1.5-0.1
			c-0.5,0-1,0.1-1.4,0.1c0.9-3.3,1.7-6.7,2.1-9.6c0.4,0,0.8,0.1,1.3,0.1c0.5,0,0.9,0,1.3-0.1c-0.2,0.7-0.3,1.5-0.5,2.2
			c0.3-0.6,1.3-2.4,3-2.4c0.4,0,0.6,0.1,0.8,0.2c-0.5,0.9-0.6,1.5-0.7,2.5L144.9,116z"/>
		<path fill="#106696" d="M154,113.4c0.3,0,0.5,0.1,0.9,0.1c0.3,0,0.6-0.1,0.8-0.1c-0.4,0.6-1.9,3-2.2,3.6c-0.6,1-2.4,4.2-2.9,5.1
			c-0.2,0.3-0.3,0.6-0.5,1c-0.3,0-0.7-0.1-1-0.1c-0.4,0-0.8,0-1.1,0.1c-0.2-2.3-0.5-4.6-0.8-6.9c-0.2-1.7-0.3-2.1-0.4-2.7
			c0.4,0,0.8,0.1,1.4,0.1c0.6,0,1-0.1,1.4-0.1c0,0.4,0.3,3.9,0.8,6.9C151.5,118.1,152.8,115.8,154,113.4z"/>
		<path fill="#106696" d="M158.8,113.5c0.7,0,1.1,0,1.5-0.1c-0.5,1.7-1.8,6.9-2.1,9.6c-0.4-0.1-0.9-0.1-1.5-0.1
			c-0.6,0-1.1,0.1-1.5,0.1c0.8-2.8,1.8-7.5,2.1-9.6C157.7,113.5,158.2,113.5,158.8,113.5z M159.4,108.2c0.8,0,1.5,0.7,1.5,1.5
			c0,0.8-0.7,1.5-1.5,1.5c-0.9,0-1.5-0.7-1.5-1.5C157.9,108.9,158.6,108.2,159.4,108.2z"/>
		<path fill="#106696" d="M169.2,116.4c0.1-1.6-1-2.3-2-2.3c-2.5,0-3.4,3.6-3.4,5.2c0,1.3,0.7,2.7,2.5,2.7c1,0,1.5-0.4,2.1-0.9
			l0.3,0.2c-0.4,0.7-0.6,1.1-0.6,1.4c-0.8,0.3-1.5,0.5-2.4,0.5c-2.7,0-4.7-1.6-4.7-4.4c0-2.6,1.8-5.6,5.8-5.6c1.9,0,3.1,0.6,3.9,1.1
			c-0.4,0.6-0.6,1-1,2.1H169.2z"/>
		<path fill="#106696" d="M178.7,121c-0.1,0.3-0.3,0.6-0.5,1.4c-0.9,0.6-1.9,0.8-3,0.8c-3.1,0-4.5-2.2-4.5-4.5
			c0-2.6,1.8-5.5,5.2-5.5c2.5,0,3.7,1.4,3.7,3.6c0,0.5-0.1,1-0.2,1.5c-1.7,0-2.7-0.1-3.6-0.1c-0.5,0-1.1,0-2.3,0
			c0,0.3-0.1,0.7-0.1,1.1c0,1.6,0.7,2.6,2.4,2.6c0.7,0,1.7-0.3,2.5-1.1L178.7,121z M176,114.1c-1.4,0-1.9,1.6-2.3,3.2
			c0.5,0,0.9,0,1.4,0c0.5,0,1.1,0,1.9,0c0.1-0.3,0.2-1,0.2-1.7C177.3,114.8,177,114.1,176,114.1z"/>
		<path fill="#106696" d="M186.6,115.9c-0.1-0.5-0.4-1.7-2-1.7c-1,0-1.6,0.6-1.6,1.3c0,0.7,0.5,1,2.1,1.8c1.1,0.6,1.9,1.3,1.9,2.6
			c0,2.3-2.1,3.4-4.2,3.4c-1,0-1.8-0.2-2.7-0.7c0.3-0.7,0.5-1.3,0.6-2h0.4c0.2,1.1,1.2,1.7,2.2,1.7c1,0,1.7-0.6,1.7-1.3
			c0-0.8-0.7-1.1-1.8-1.7c-1-0.5-2.1-1.1-2.1-2.8c0-1.6,1.3-3.3,3.8-3.3c1.2,0,2.1,0.4,2.7,0.6c-0.4,0.7-0.5,1.5-0.6,2H186.6z"/>
		<path fill="#106696" d="M206.5,112.1c-0.8-1.3-1.9-1.9-3.5-1.9c-4,0-5.5,4.2-5.5,7.6c0,2.6,1.4,4.2,4,4.2c1.3,0,2.5-0.4,3.5-1.2
			l0.2,0.1c-0.3,0.6-0.5,1-0.7,1.6c-0.9,0.3-1.6,0.5-3,0.5c-5.4,0-6.9-3.5-6.9-6.3c0-4.3,3.4-7.8,8.2-7.8c2.6,0,4.1,0.8,4.9,1.2
			c-0.4,0.6-0.7,1.4-0.9,1.8H206.5z"/>
		<path fill="#106696" d="M211.8,113.2c2.8,0,4.3,1.7,4.3,4.3c0,3.2-2.7,5.7-5.9,5.7c-2.5,0-4.2-1.8-4.2-4.2
			C206.1,115.8,208.6,113.2,211.8,113.2z M210.4,122.5c2.3,0,3.1-4.4,3.1-6c0-1.1-0.3-2.4-1.6-2.4c-2.3,0-3.1,4.4-3.1,6
			C208.8,121.2,209.1,122.5,210.4,122.5z"/>
		<path fill="#106696" d="M224.1,116c-0.2-0.1-0.5-0.3-1-0.3c-1.7,0-2.1,1.4-2.3,2.2c-0.2,0.9-0.5,2.3-1,5.1c-0.4,0-0.9-0.1-1.5-0.1
			c-0.5,0-1,0.1-1.4,0.1c0.9-3.3,1.7-6.7,2.1-9.6c0.4,0,0.8,0.1,1.3,0.1c0.5,0,0.9,0,1.3-0.1c-0.2,0.7-0.3,1.5-0.5,2.2
			c0.3-0.6,1.3-2.4,3-2.4c0.4,0,0.6,0.1,0.8,0.2c-0.5,0.9-0.6,1.5-0.7,2.5L224.1,116z"/>
		<path fill="#106696" d="M230.3,123.2c-1.2,0-2.3-0.6-2.8-1.4c-0.6,2.1-1,4.2-1.3,6.3c-0.3,0-0.8-0.1-1.3-0.1c-0.5,0-1,0.1-1.4,0.1
			c0.8-3.4,2.6-11.8,3-14.7c0.4,0,0.7,0.1,1.3,0.1c0.6,0,1-0.1,1.4-0.1c-0.2,0.5-0.3,0.9-0.4,1.3c0.7-1,1.6-1.6,2.9-1.6
			c1.2,0,3.4,0.7,3.4,3.9C235,119.9,233.2,123.2,230.3,123.2z M229.5,122c2,0,2.7-4.2,2.7-5.6c0-1.1-0.6-1.8-1.5-1.8
			c-2,0-2.7,4-2.7,5.4C227.9,121.1,228.6,122,229.5,122z"/>
		<path fill="#106696" d="M239.3,121.6c0,0.9-0.7,1.6-1.6,1.6c-0.9,0-1.6-0.7-1.6-1.6c0-0.9,0.7-1.6,1.6-1.6
			C238.6,120,239.3,120.7,239.3,121.6z"/>
	</g>
	<g>
		<path fill="#106696" d="M254.1,87.4c0,0,1.8,5,2.4,5.1c0.6,0.1,14.7-19,16.2-18.7c2.8,0.7,3.9,37,5.8,37.1
			c2.4,0.1,19.6-62.7,23.6-62.6c3.9,0.2-0.7,75.6,3.2,75.6c5.5,0,31-89,41-95.1c10-6.1-8.6,96.4-3.9,97.2
			c2.2,0.4,12.3-64.1,17.3-63.7c5,0.4,5,40.2,6.9,40.6c1.9,0.4,3-15.6,3-15.6h5.6c0,0-6.3,21.6-9.8,22.1
			c-3.5,0.4-8.3-17.7-10.2-17.8c-1.8-0.1-10.5,52.4-16.5,50.8c-7.1-1.9,5.2-94.3,0.4-85c-4.8,9.3-27.6,117.2-42.2,113.9
			c-18-4.1,3-100.9,1.1-101.8c-2.3-1.2-13.6,53.4-20.1,53.4c-6.5,0-4.3-35.7-6.1-36c-2-0.3-13.7,11.5-17,12
			c-3.3,0.4-2.4-11.5-2.4-11.5H254.1z"/>
	</g>
	<path fill="#106696" d="M194.5,125.7"/>
	<path fill="#106696" d="M129.5,73.7c-8.3,15.2-11.9,22.9-15,30.5c-2.1-0.2-2.6-0.3-3.9-0.3c-0.9,0-2.2,0.1-3.5,0.3
		c4.1-6.4,5.5-9,18-31.9c1.8-3.3,4.5-8.3,5.9-11.7c0.6,0.1,1.5,0.2,2.7,0.2c1,0,2.3-0.1,3.2-0.2c2.4,12.7,8.8,37.2,10.7,43.6
		c-1.9-0.2-3.8-0.3-5.7-0.3c-2.1,0-5.2,0.2-6.2,0.3C133.5,88.7,131.8,83.4,129.5,73.7z"/>
	<path fill="#106696" d="M58.5,73.7c-8.3,15.2-11.9,22.9-15,30.5c-2.1-0.2-2.6-0.3-3.9-0.3c-0.9,0-2.2,0.1-3.5,0.3
		c4.1-6.4,5.5-9,18-31.9c1.8-3.3,4.5-8.3,5.9-11.7c0.6,0.1,1.5,0.2,2.7,0.2c1,0,2.3-0.1,3.2-0.2c2.4,12.7,8.8,37.2,10.7,43.6
		c-1.9-0.2-3.8-0.3-5.7-0.3c-2.1,0-5.2,0.2-6.2,0.3C62.4,88.7,60.8,83.4,58.5,73.7z"/>
	<path fill="#106696" d="M213,73.7c-8.3,15.2-11.9,22.9-15,30.5c-2.1-0.2-2.6-0.3-3.9-0.3c-0.9,0-2.2,0.1-3.5,0.3
		c4.1-6.4,5.5-9,18-31.9c1.8-3.3,4.5-8.3,5.9-11.7c0.6,0.1,1.5,0.2,2.7,0.2c1,0,2.3-0.1,3.2-0.2c2.4,12.7,8.8,37.2,10.7,43.6
		c-1.9-0.2-3.8-0.3-5.7-0.3c-2.1,0-5.2,0.2-6.2,0.3C217,88.7,215.3,83.4,213,73.7z"/>
	<g>
		<polygon fill="#106696" points="253.5,87.4 253.5,92.3 200.7,92.3 202.2,87.4 		"/>
	</g>
	<g>
		<polygon fill="#106696" points="68.6,87.4 68.6,92.3 15.9,92.3 17.4,87.4 		"/>
	</g>
	<g>
		<polygon fill="#106696" points="140.3,87.4 143.1,92.3 118,92.3 119.4,87.4 		"/>
	</g>
</g>
</svg>
