<?xml version="1.0" encoding="utf-8"?>
<!-- Generator: Adobe Illustrator 16.0.0, SVG Export Plug-In . SVG Version: 6.00 Build 0)  -->
<svg version="1.2" baseProfile="tiny" id="Layer_1" xmlns="http://www.w3.org/2000/svg" xmlns:xlink="http://www.w3.org/1999/xlink"
	 x="0px" y="0px" width="567.533px" height="194.256px" viewBox="21.624 298.812 567.533 194.256" xml:space="preserve">
<g>
	<g>
		<path fill="#FFFFFF" d="M112.064,359.552c-0.816-5.304-1.904-11.152-3.264-16.456c2.584,0.272,5.304,0.408,7.888,0.408
			c2.856,0,5.576-0.136,8.16-0.408c0.952,14.144,2.992,28.832,5.032,40.664c5.304-7.344,9.928-15.096,14.552-22.848
			c4.216-7.072,7.208-13.328,9.248-17.816c1.904,0.408,3.264,0.408,5.168,0.408c1.904,0,3.264-0.136,4.896-0.408
			c-5.44,7.616-7.344,10.88-25.976,40.528c-5.848,9.384-8.16,14.008-10.2,18.088c-1.768-0.408-2.992-0.408-4.76-0.408
			c-2.312,0-3.536,0.137-4.624,0.408C116.96,387.432,114.648,373.56,112.064,359.552z"/>
	</g>
	<g>
		<path fill="#FFFFFF" d="M243.168,349.896c-4.08-0.136-7.48-0.136-9.928-0.136c-8.568,0-12.376,0.408-17,1.496
			c0.816-2.04,1.768-4.216,1.632-8.16c8.16,0.408,16.456,0.408,24.888,0.408c10.064,0,16.048-0.136,22.576-0.408
			c-0.408,1.088-0.544,1.904-0.544,2.992c-8.16,9.384-9.792,11.424-24.344,29.784c-10.608,13.328-11.696,14.96-14.688,19.176
			c1.632,0.136,3.672,0.136,8.16,0.136c8.432,0,14.688-0.136,22.44-1.224c-1.224,3.536-1.496,5.848-1.632,8.024
			c-7.072-0.408-15.368-0.408-25.024-0.408c-11.016,0-17.68,0.136-24.48,0.408c0.272-1.088,0.272-1.904,0.272-3.265
			C210.664,392.328,236.232,359.96,243.168,349.896z"/>
	</g>
	<g>
		<polygon fill="#FFFFFF" points="589.157,378.864 587.39,385.528 504.43,385.528 502.661,378.864 		"/>
	</g>
	<g>
		<path fill="#FFFFFF" d="M47.328,408.784c0.816,0,1.632,0,2.176-0.136c-1.632,5.575-3.4,14.416-3.672,16.728
			c3.128,0,4.624,0,6.392-0.136c-0.408,0.815-0.408,1.224-0.408,2.04c-1.904-0.137-3.672-0.137-5.576-0.137
			c-2.04,0-3.808,0.137-5.168,0.137c0.816-2.992,1.632-6.664,2.312-9.929c0.68-2.855,1.088-5.712,1.496-8.567
			C45.696,408.784,46.512,408.784,47.328,408.784z"/>
		<path fill="#FFFFFF" d="M65.416,426.736c-0.544,0.407-1.088,0.68-2.176,0.68c-2.04,0-2.312-1.36-2.448-2.04
			c-0.816,1.496-1.904,2.176-3.672,2.176c-2.176,0-3.536-1.496-3.536-3.536c0-1.768,1.088-3.399,2.856-3.943
			c0.816-0.272,2.176-0.408,3.264-0.544c1.632-0.137,2.04-0.272,2.04-1.769c0-1.632-1.224-2.04-2.312-2.04s-2.04,0.408-2.856,1.088
			H56.44c0.136-0.68,0.136-0.951,0.136-1.495c1.496-0.816,3.128-1.225,4.76-1.225c2.04,0,4.216,0.816,4.216,3.264
			c0,0.816-0.272,1.904-0.408,2.448l-0.68,3.4c-0.272,1.224-0.272,1.768-0.272,2.04c0,0.408,0.136,1.088,0.68,1.088
			c0.136,0,0.272-0.136,0.408-0.136L65.416,426.736z M58.616,425.784c1.632,0,2.04-1.904,2.312-3.265l0.408-2.039
			c-1.632,0.271-2.312,0.407-2.992,0.815c-0.816,0.544-1.224,1.769-1.224,2.72C57.256,424.832,57.528,425.784,58.616,425.784z"/>
		<path fill="#FFFFFF" d="M79.968,421.296c-0.68,2.72-0.816,3.808-1.224,5.984c-0.544,0-1.224-0.137-2.04-0.137
			s-1.496,0.137-2.04,0.137c0.408-1.36,2.584-8.296,2.584-9.792c0-0.952-0.544-1.496-1.632-1.496c-1.36,0-2.72,1.088-3.4,3.399
			c-0.544,1.769-1.36,5.168-1.768,7.752c-0.68,0-1.224-0.136-1.904-0.136s-1.36,0-1.904,0.136c0.952-3.535,1.768-7.208,2.856-13.056
			c0.544,0.136,1.36,0.136,1.904,0.136s1.224,0,1.768-0.136c-0.272,0.952-0.408,1.225-0.544,2.313
			c1.36-1.633,2.72-2.584,4.896-2.584c2.176,0,3.264,1.224,3.264,2.855C80.784,417.76,80.648,418.44,79.968,421.296z"/>
		<path fill="#FFFFFF" d="M85.68,421.976c-1.496-0.68-2.448-1.768-2.448-3.399c0-2.313,1.904-4.624,5.984-4.624
			c0.816,0,1.496,0.136,2.04,0.271c0.816,0.137,1.088,0.272,1.632,0.272s2.584-0.136,3.128-0.136
			c-0.136,0.407-0.272,0.815-0.272,1.359c-0.816,0-1.496,0-2.312,0c0.68,0.681,0.952,1.496,0.952,2.448s-0.408,2.584-1.904,3.536
			c-1.632,0.952-3.4,1.088-4.352,1.088c-0.272,0-1.224,0-1.36,0c-0.816,0-1.224,0.68-1.224,1.224c0,0.952,0.952,1.088,2.584,1.088
			c0.952,0,2.584,0,3.536,0.545c1.088,0.544,1.768,1.768,1.768,2.991c0,2.584-2.312,5.849-7.072,5.849
			c-2.312,0-5.848-0.681-5.848-3.672c0-2.04,1.768-3.129,3.536-3.536v-0.137c-0.816-0.407-1.36-0.951-1.36-1.903
			c0-1.496,1.36-2.448,2.72-2.721L85.68,421.976z M86.632,433.128c2.72,0,3.944-1.496,3.944-3.264c0-1.632-1.088-2.313-4.76-2.313
			c-0.408,0-0.952,0-1.496,0.272c-0.816,0.408-1.224,1.359-1.224,2.312C83.232,432.313,84.728,433.128,86.632,433.128z
			 M88.4,421.568c2.04,0,2.72-3.128,2.72-4.624c0-0.816-0.272-2.04-1.632-2.04c-2.04,0-2.584,3.399-2.584,4.624
			C86.768,420.752,87.176,421.568,88.4,421.568z"/>
		<path fill="#FFFFFF" d="M97.104,421.84c1.088-4.896,1.36-6.12,1.496-7.616c0.544,0.137,1.224,0.137,2.04,0.137
			c0.952,0,1.496-0.137,2.04-0.137c-0.952,3.265-1.224,4.353-1.904,6.937c-0.408,1.904-0.544,2.584-0.544,3.128
			c0,0.815,0.544,1.36,1.632,1.36c0.952,0,2.448-0.681,3.264-2.992c0.816-2.176,1.496-5.984,1.904-8.296
			c0.544,0.136,0.952,0.136,1.768,0.136c0.952,0,1.496-0.136,2.04-0.136c-1.36,5.168-2.04,8.84-2.72,13.056
			c-0.544-0.136-0.952-0.136-1.768-0.136s-1.496,0-1.904,0.136c0.272-0.816,0.408-1.224,0.68-2.176
			c-0.68,0.815-2.04,2.584-4.896,2.584c-2.176,0-3.4-1.225-3.4-2.856C96.56,423.744,96.832,422.792,97.104,421.84z"/>
		<path fill="#FFFFFF" d="M123.08,426.736c-0.544,0.407-1.088,0.68-2.176,0.68c-2.04,0-2.312-1.36-2.584-2.04
			c-0.816,1.496-1.904,2.176-3.672,2.176c-2.176,0-3.536-1.496-3.536-3.536c0-1.768,1.088-3.399,2.856-3.943
			c0.816-0.272,2.176-0.408,3.264-0.544c1.632-0.137,2.04-0.272,2.04-1.769c0-1.632-1.224-2.04-2.312-2.04s-2.04,0.408-2.856,1.088
			h-0.136c0.136-0.68,0.136-0.951,0.136-1.495c1.496-0.816,3.128-1.225,4.76-1.225c2.04,0,4.216,0.816,4.216,3.264
			c0,0.816-0.272,1.904-0.408,2.448l-0.68,3.4c-0.272,1.224-0.272,1.768-0.272,2.04c0,0.408,0.136,1.088,0.68,1.088
			c0.136,0,0.272-0.136,0.408-0.136L123.08,426.736z M116.416,425.784c1.632,0,2.04-1.904,2.312-3.265l0.408-2.039
			c-1.632,0.271-2.448,0.407-2.992,0.815c-0.816,0.544-1.224,1.769-1.224,2.72C114.92,424.832,115.328,425.784,116.416,425.784z"/>
		<path fill="#FFFFFF" d="M128.248,421.976c-1.496-0.68-2.448-1.768-2.448-3.399c0-2.313,1.904-4.624,5.984-4.624
			c0.816,0,1.496,0.136,2.04,0.271c0.816,0.137,1.088,0.272,1.632,0.272s2.584-0.136,3.128-0.136
			c-0.136,0.407-0.272,0.815-0.272,1.359c-0.816,0-1.496,0-2.312,0c0.68,0.681,0.952,1.496,0.952,2.448s-0.408,2.584-1.904,3.536
			c-1.632,0.952-3.4,1.088-4.352,1.088c-0.272,0-1.224,0-1.36,0c-0.816,0-1.224,0.68-1.224,1.224c0,0.952,0.952,1.088,2.584,1.088
			c0.952,0,2.584,0,3.536,0.545c1.088,0.544,1.768,1.768,1.768,2.991c0,2.584-2.312,5.849-7.072,5.849
			c-2.312,0-5.848-0.681-5.848-3.672c0-2.04,1.768-3.129,3.536-3.536v-0.137c-0.816-0.407-1.36-0.951-1.36-1.903
			c0-1.496,1.36-2.448,2.72-2.721L128.248,421.976z M129.336,433.128c2.72,0,3.944-1.496,3.944-3.264
			c0-1.632-1.088-2.313-4.76-2.313c-0.408,0-0.952,0-1.496,0.272c-0.816,0.408-1.224,1.359-1.224,2.312
			C125.8,432.313,127.432,433.128,129.336,433.128z M131.104,421.568c2.04,0,2.72-3.128,2.72-4.624c0-0.816-0.272-2.04-1.632-2.04
			c-2.04,0-2.584,3.399-2.584,4.624C129.472,420.752,129.88,421.568,131.104,421.568z"/>
		<path fill="#FFFFFF" d="M150.008,424.56c-0.136,0.408-0.408,0.816-0.68,1.904c-1.224,0.816-2.584,1.088-4.08,1.088
			c-4.216,0-6.12-2.992-6.12-6.12c0-3.535,2.448-7.479,7.072-7.479c3.4,0,5.032,1.904,5.032,4.896c0,0.681-0.136,1.36-0.272,2.04
			c-2.312,0-3.672-0.136-4.896-0.136c-0.68,0-1.496,0-3.128,0c0,0.408-0.136,0.952-0.136,1.496c0,2.176,0.952,3.536,3.264,3.536
			c0.952,0,2.312-0.408,3.4-1.496L150.008,424.56z M146.336,415.176c-1.904,0-2.584,2.176-3.128,4.353c0.68,0,1.224,0,1.904,0
			c0.68,0,1.496,0,2.584,0c0.136-0.408,0.272-1.36,0.272-2.313C148.104,416.128,147.696,415.176,146.336,415.176z"/>
		<path fill="#FFFFFF" d="M171.632,413c-0.136-1.768-1.224-2.992-3.264-2.992c-1.768,0-2.72,1.225-2.72,2.448
			c0,1.496,1.088,2.312,3.128,4.08c1.632,1.36,3.128,2.72,3.128,5.168c0,3.808-2.992,5.848-6.528,5.848
			c-2.176,0-3.808-0.544-5.712-1.632c0.544-1.088,0.952-2.312,1.224-3.264h0.544c0.136,2.04,1.632,3.399,3.672,3.399
			c1.632,0,3.128-0.952,3.128-2.72c0-1.496-1.36-2.584-2.856-3.808c-1.904-1.496-3.4-2.856-3.4-5.44c0-3.672,2.72-5.712,6.256-5.712
			c1.904,0,3.536,0.408,5.168,1.496c-0.68,1.36-0.952,2.312-1.224,3.264h-0.544V413z"/>
		<path fill="#FFFFFF" d="M185.096,424.56c-0.136,0.408-0.408,0.816-0.68,1.904c-1.224,0.816-2.584,1.088-4.08,1.088
			c-4.216,0-6.12-2.992-6.12-6.12c0-3.535,2.448-7.479,7.072-7.479c3.4,0,5.032,1.904,5.032,4.896c0,0.681-0.136,1.36-0.272,2.04
			c-2.312,0-3.672-0.136-4.896-0.136c-0.68,0-1.496,0-3.128,0c0,0.408-0.136,0.952-0.136,1.496c0,2.176,0.952,3.536,3.264,3.536
			c0.952,0,2.312-0.408,3.4-1.496L185.096,424.56z M181.424,415.176c-1.904,0-2.584,2.176-3.128,4.353c0.68,0,1.224,0,1.904,0
			c0.68,0,1.496,0,2.584,0c0.136-0.408,0.272-1.36,0.272-2.313C183.192,416.128,182.784,415.176,181.424,415.176z"/>
		<path fill="#FFFFFF" d="M197.064,417.76c-0.272-0.136-0.68-0.408-1.36-0.408c-2.312,0-2.856,1.904-3.128,2.992
			c-0.272,1.225-0.68,3.128-1.36,6.937c-0.544,0-1.224-0.137-2.04-0.137c-0.68,0-1.36,0.137-1.904,0.137
			c1.224-4.488,2.312-9.112,2.856-13.057c0.544,0,1.088,0.137,1.768,0.137s1.224,0,1.768-0.137c-0.272,0.952-0.408,2.04-0.68,2.992
			c0.408-0.815,1.768-3.264,4.08-3.264c0.544,0,0.816,0.136,1.088,0.271c-0.68,1.225-0.816,2.04-0.952,3.4L197.064,417.76z"/>
		<path fill="#FFFFFF" d="M209.44,414.224c0.408,0,0.68,0.137,1.224,0.137c0.408,0,0.816-0.137,1.088-0.137
			c-0.544,0.816-2.584,4.08-2.992,4.896c-0.816,1.36-3.264,5.712-3.944,6.936c-0.272,0.408-0.408,0.816-0.68,1.36
			c-0.408,0-0.952-0.136-1.36-0.136c-0.544,0-1.088,0-1.496,0.136c-0.272-3.128-0.68-6.256-1.088-9.384
			c-0.272-2.313-0.408-2.856-0.544-3.672c0.544,0,1.088,0.136,1.904,0.136c0.816,0,1.36-0.136,1.904-0.136
			c0,0.544,0.408,5.304,1.088,9.384C206.04,420.616,207.808,417.488,209.44,414.224z"/>
		<path fill="#FFFFFF" d="M215.968,414.36c0.952,0,1.496,0,2.04-0.137c-0.68,2.313-2.448,9.385-2.856,13.057
			c-0.544-0.137-1.224-0.137-2.04-0.137c-0.816,0-1.496,0.137-2.04,0.137c1.088-3.809,2.448-10.2,2.856-13.057
			C214.472,414.36,215.152,414.36,215.968,414.36z M216.784,407.152c1.088,0,2.04,0.951,2.04,2.04c0,1.088-0.952,2.04-2.04,2.04
			c-1.224,0-2.04-0.952-2.04-2.04C214.744,408.104,215.696,407.152,216.784,407.152z"/>
		<path fill="#FFFFFF" d="M230.112,418.304c0.136-2.176-1.36-3.128-2.72-3.128c-3.4,0-4.624,4.896-4.624,7.072
			c0,1.768,0.952,3.672,3.4,3.672c1.36,0,2.04-0.544,2.856-1.224l0.408,0.271c-0.544,0.952-0.816,1.496-0.816,1.904
			c-1.088,0.408-2.04,0.68-3.264,0.68c-3.672,0-6.392-2.176-6.392-5.983c0-3.536,2.448-7.616,7.888-7.616
			c2.584,0,4.216,0.815,5.304,1.496c-0.544,0.815-0.816,1.359-1.36,2.855H230.112L230.112,418.304z"/>
		<path fill="#FFFFFF" d="M243.032,424.56c-0.136,0.408-0.408,0.816-0.68,1.904c-1.224,0.816-2.584,1.088-4.08,1.088
			c-4.216,0-6.12-2.992-6.12-6.12c0-3.535,2.448-7.479,7.072-7.479c3.4,0,5.032,1.904,5.032,4.896c0,0.681-0.136,1.36-0.272,2.04
			c-2.312,0-3.672-0.136-4.896-0.136c-0.68,0-1.496,0-3.128,0c0,0.408-0.136,0.952-0.136,1.496c0,2.176,0.952,3.536,3.264,3.536
			c0.952,0,2.312-0.408,3.4-1.496L243.032,424.56z M239.36,415.176c-1.904,0-2.584,2.176-3.128,4.353c0.68,0,1.224,0,1.904,0
			c0.68,0,1.496,0,2.584,0c0.136-0.408,0.272-1.36,0.272-2.313C241.128,416.128,240.72,415.176,239.36,415.176z"/>
		<path fill="#FFFFFF" d="M253.776,417.624c-0.136-0.68-0.544-2.312-2.72-2.312c-1.36,0-2.176,0.815-2.176,1.768
			s0.68,1.36,2.856,2.448c1.496,0.815,2.584,1.768,2.584,3.536c0,3.128-2.856,4.624-5.712,4.624c-1.36,0-2.448-0.272-3.672-0.952
			c0.408-0.952,0.68-1.769,0.816-2.721h0.544c0.272,1.496,1.632,2.313,2.992,2.313s2.312-0.816,2.312-1.769
			c0-1.088-0.952-1.495-2.448-2.312c-1.36-0.68-2.856-1.496-2.856-3.808c0-2.177,1.768-4.488,5.168-4.488
			c1.632,0,2.856,0.544,3.672,0.815c-0.544,0.952-0.68,2.04-0.816,2.721h-0.544V417.624z"/>
		<path fill="#FFFFFF" d="M280.84,412.456c-1.088-1.769-2.584-2.584-4.76-2.584c-5.44,0-7.48,5.712-7.48,10.336
			c0,3.536,1.904,5.712,5.44,5.712c1.768,0,3.4-0.544,4.76-1.632l0.272,0.136c-0.408,0.816-0.68,1.36-0.952,2.176
			c-1.224,0.408-2.176,0.681-4.08,0.681c-7.344,0-9.384-4.761-9.384-8.568c0-5.848,4.624-10.608,11.152-10.608
			c3.536,0,5.576,1.089,6.664,1.633c-0.544,0.815-0.952,1.903-1.224,2.447h-0.408V412.456z"/>
		<path fill="#FFFFFF" d="M288.048,413.952c3.808,0,5.848,2.312,5.848,5.848c0,4.353-3.672,7.752-8.024,7.752
			c-3.4,0-5.712-2.448-5.712-5.712C280.296,417.488,283.696,413.952,288.048,413.952z M286.144,426.6
			c3.128,0,4.216-5.983,4.216-8.159c0-1.496-0.408-3.265-2.176-3.265c-3.128,0-4.216,5.984-4.216,8.16
			C283.968,424.832,284.376,426.6,286.144,426.6z"/>
		<path fill="#FFFFFF" d="M304.776,417.76c-0.272-0.136-0.68-0.408-1.36-0.408c-2.312,0-2.856,1.904-3.128,2.992
			c-0.272,1.225-0.68,3.128-1.36,6.937c-0.544,0-1.224-0.137-2.04-0.137c-0.68,0-1.36,0.137-1.904,0.137
			c1.224-4.488,2.312-9.112,2.856-13.057c0.544,0,1.088,0.137,1.768,0.137c0.68,0,1.224,0,1.768-0.137
			c-0.272,0.952-0.408,2.04-0.68,2.992c0.408-0.815,1.768-3.264,4.08-3.264c0.544,0,0.816,0.136,1.088,0.271
			c-0.68,1.225-0.816,2.04-0.952,3.4L304.776,417.76z"/>
		<path fill="#FFFFFF" d="M313.208,427.552c-1.632,0-3.128-0.815-3.808-1.903c-0.816,2.855-1.36,5.712-1.769,8.567
			c-0.408,0-1.088-0.136-1.768-0.136c-0.68,0-1.36,0.136-1.904,0.136c1.088-4.624,3.536-16.048,4.08-19.992
			c0.544,0,0.952,0.137,1.768,0.137c0.816,0,1.36-0.137,1.904-0.137c-0.271,0.681-0.408,1.225-0.544,1.769
			c0.952-1.36,2.176-2.176,3.944-2.176c1.632,0,4.624,0.951,4.624,5.304C319.6,423.064,317.152,427.552,313.208,427.552z
			 M312.12,425.92c2.72,0,3.672-5.712,3.672-7.616c0-1.496-0.816-2.447-2.04-2.447c-2.72,0-3.672,5.439-3.672,7.344
			C309.944,424.696,310.896,425.92,312.12,425.92z"/>
		<path fill="#FFFFFF" d="M325.448,425.376c0,1.224-0.952,2.176-2.176,2.176c-1.225,0-2.177-0.952-2.177-2.176
			s0.952-2.176,2.177-2.176C324.496,423.2,325.448,424.152,325.448,425.376z"/>
	</g>
	<g>
		<path fill="#FFFFFF" d="M345.576,378.864c0,0,2.448,6.8,3.264,6.936c0.816,0.136,19.992-25.84,22.032-25.432
			c3.808,0.952,5.304,50.319,7.888,50.456c3.265,0.136,26.656-85.272,32.097-85.136c5.304,0.272-0.952,102.816,4.352,102.816
			c7.48,0,42.16-121.04,55.76-129.336c13.601-8.296-11.695,131.104-5.304,132.192c2.992,0.544,16.728-87.176,23.528-86.632
			c6.8,0.544,6.8,54.672,9.384,55.216s4.07-21.08,4.07-21.08h7.626c0,0-8.568,29.239-13.328,29.92
			c-4.761,0.544-11.288-24.072-13.872-24.208c-2.448-0.136-14.28,71.264-22.44,69.088c-9.656-2.584,7.072-128.248,0.544-115.6
			c-6.527,12.648-37.536,159.392-57.392,154.904c-24.48-5.576,4.08-137.224,1.496-138.448c-3.128-1.632-18.496,72.624-27.336,72.624
			c-8.841,0-5.849-48.552-8.296-48.959c-2.721-0.408-18.633,15.64-23.12,16.32c-4.488,0.544-3.265-15.64-3.265-15.64
			L345.576,378.864L345.576,378.864z"/>
	</g>
	<path fill="#FFFFFF" d="M264.52,430.952"/>
	<path fill="#FFFFFF" d="M176.12,360.232c-11.288,20.672-16.184,31.144-20.4,41.48c-2.856-0.271-3.536-0.408-5.304-0.408
		c-1.224,0-2.992,0.137-4.76,0.408c5.576-8.704,7.48-12.24,24.48-43.384c2.448-4.488,6.12-11.288,8.024-15.912
		c0.816,0.136,2.04,0.272,3.672,0.272c1.36,0,3.128-0.136,4.352-0.272c3.264,17.272,11.968,50.592,14.552,59.296
		c-2.584-0.271-5.168-0.408-7.752-0.408c-2.856,0-7.072,0.272-8.432,0.408C181.56,380.632,179.248,373.424,176.12,360.232z"/>
	<path fill="#FFFFFF" d="M79.56,360.232c-11.288,20.672-16.184,31.144-20.4,41.48c-2.856-0.271-3.536-0.408-5.304-0.408
		c-1.224,0-2.992,0.137-4.76,0.408c5.576-8.704,7.48-12.24,24.48-43.384c2.448-4.488,6.12-11.288,8.024-15.912
		c0.816,0.136,2.04,0.272,3.672,0.272c1.36,0,3.128-0.136,4.352-0.272c3.264,17.272,11.968,50.592,14.552,59.296
		c-2.584-0.271-5.168-0.408-7.752-0.408c-2.856,0-7.072,0.272-8.432,0.408C84.864,380.632,82.688,373.424,79.56,360.232z"/>
	<path fill="#FFFFFF" d="M289.68,360.232c-11.288,20.672-16.184,31.144-20.4,41.48c-2.856-0.271-3.536-0.408-5.304-0.408
		c-1.224,0-2.992,0.137-4.76,0.408c5.576-8.704,7.48-12.24,24.48-43.384c2.448-4.488,6.12-11.288,8.024-15.912
		c0.816,0.136,2.04,0.272,3.672,0.272c1.36,0,3.128-0.136,4.352-0.272c3.264,17.272,11.968,50.592,14.552,59.296
		c-2.584-0.271-5.168-0.408-7.752-0.408c-2.856,0-7.072,0.272-8.432,0.408C295.12,380.632,292.808,373.424,289.68,360.232z"/>
	<g>
		<polygon fill="#FFFFFF" points="344.76,378.864 344.76,385.528 272.952,385.528 274.992,378.864 		"/>
	</g>
	<g>
		<polygon fill="#FFFFFF" points="93.296,378.864 93.296,385.528 21.624,385.528 23.664,378.864 		"/>
	</g>
	<g>
		<polygon fill="#FFFFFF" points="190.808,378.864 194.616,385.528 160.48,385.528 162.384,378.864 		"/>
	</g>
</g>
</svg>
